<svg aria-hidden="true" style="position: absolute; width: 0; height: 0; overflow: hidden;" version="1.1" xmlns="http://www.w3.org/2000/svg" xmlns:xlink="http://www.w3.org/1999/xlink">
<defs>
<symbol id="icon-Express" viewBox="0 0 106 32">
<path d="M5.328 20.239h5.899v4.421h-11.227v-24.66h11.227v4.345h-5.899v5.793h5.518v4.193h-5.518v5.908z"></path>
<path d="M20.664 18.562l-2.816 6.098h-5.29l5.176-9.91-4.833-8.69h5.556l2.207 5.565 2.207-5.565h5.556l-4.833 8.69 5.176 9.91h-5.29l-2.816-6.098z"></path>
<path d="M39.751 25.041h-0.799c-1.294 0-2.334-0.305-3.121-0.915v6.594h-5.1v-24.66h4.3v1.372c0.787-1.169 2.093-1.753 3.92-1.753h0.799c3.146 0 4.719 1.677 4.719 5.031v9.3c0 3.354-1.573 5.031-4.719 5.031zM35.831 10.1v10.519c0 0.203 0.063 0.381 0.19 0.534 0.152 0.152 0.33 0.229 0.533 0.229h2.093c0.203 0 0.368-0.076 0.495-0.229 0.152-0.152 0.228-0.33 0.228-0.534v-10.519c0-0.203-0.076-0.381-0.228-0.534-0.127-0.152-0.292-0.229-0.495-0.229h-2.093c-0.203 0-0.38 0.076-0.533 0.229-0.127 0.152-0.19 0.33-0.19 0.534z"></path>
<path d="M55.854 5.679h0.989v4.955h-2.512c-0.863 0-1.294 0.445-1.294 1.334v12.692h-5.1v-18.6h4.643v1.791c0.736-1.448 1.827-2.172 3.273-2.172z"></path>
<path d="M68.145 5.679c3.146 0 4.719 1.677 4.719 5.031v6.022h-8.639v3.888c0 0.203 0.064 0.381 0.19 0.534 0.152 0.152 0.33 0.229 0.533 0.229h2.093c0.203 0 0.368-0.076 0.495-0.229 0.152-0.152 0.228-0.33 0.228-0.534v-2.058h5.1v1.448c0 3.354-1.573 5.031-4.719 5.031h-4.3c-3.146 0-4.719-1.677-4.719-5.031v-9.3c0-3.354 1.573-5.031 4.719-5.031h4.3zM64.225 13.378h3.539v-3.43c0-0.203-0.076-0.381-0.228-0.534-0.127-0.152-0.292-0.229-0.495-0.229h-2.093c-0.203 0-0.38 0.076-0.533 0.229-0.127 0.152-0.19 0.33-0.19 0.534v3.43z"></path>
<path d="M84.417 12.997c3.146 0 4.719 1.677 4.719 5.031v1.982c0 3.354-1.573 5.031-4.719 5.031h-4.224c-3.146 0-4.719-1.677-4.719-5.031v-1.182h4.719v1.677c0 0.203 0.063 0.381 0.19 0.534 0.152 0.152 0.33 0.229 0.533 0.229h3.121c0.203 0 0.368-0.076 0.495-0.229 0.152-0.152 0.228-0.33 0.228-0.534v-2.287c0-0.203-0.076-0.381-0.228-0.534-0.127-0.152-0.292-0.229-0.495-0.229h-3.92c-3.146 0-4.719-1.677-4.719-5.031v-1.715c0-3.354 1.573-5.031 4.719-5.031h3.996c3.146 0 4.719 1.677 4.719 5.031v0.686h-4.719v-1.182c0-0.203-0.076-0.381-0.228-0.534-0.127-0.152-0.292-0.229-0.495-0.229h-2.892c-0.203 0-0.381 0.076-0.533 0.229-0.127 0.152-0.19 0.33-0.19 0.534v2.020c0 0.203 0.064 0.381 0.19 0.534 0.152 0.152 0.33 0.229 0.533 0.229h3.92z"></path>
<path d="M100.881 12.997c3.146 0 4.719 1.677 4.719 5.031v1.982c0 3.354-1.573 5.031-4.719 5.031h-4.224c-3.146 0-4.719-1.677-4.719-5.031v-1.182h4.719v1.677c0 0.203 0.063 0.381 0.19 0.534 0.152 0.152 0.33 0.229 0.533 0.229h3.121c0.203 0 0.368-0.076 0.495-0.229 0.152-0.152 0.228-0.33 0.228-0.534v-2.287c0-0.203-0.076-0.381-0.228-0.534-0.127-0.152-0.292-0.229-0.495-0.229h-3.92c-3.146 0-4.719-1.677-4.719-5.031v-1.715c0-3.354 1.573-5.031 4.719-5.031h3.996c3.146 0 4.719 1.677 4.719 5.031v0.686h-4.719v-1.182c0-0.203-0.076-0.381-0.228-0.534-0.127-0.152-0.292-0.229-0.495-0.229h-2.892c-0.203 0-0.381 0.076-0.533 0.229-0.127 0.152-0.19 0.33-0.19 0.534v2.020c0 0.203 0.064 0.381 0.19 0.534 0.152 0.152 0.33 0.229 0.533 0.229h3.92z"></path>
</symbol>
<symbol id="icon-Express2x" viewBox="0 0 106 32">
<path d="M5.328 20.239h5.899v4.421h-11.227v-24.66h11.227v4.345h-5.899v5.793h5.518v4.193h-5.518v5.908z"></path>
<path d="M20.664 18.562l-2.816 6.098h-5.29l5.176-9.91-4.833-8.69h5.556l2.207 5.565 2.207-5.565h5.556l-4.833 8.69 5.176 9.91h-5.29l-2.816-6.098z"></path>
<path d="M39.751 25.041h-0.799c-1.294 0-2.334-0.305-3.121-0.915v6.594h-5.1v-24.66h4.3v1.372c0.787-1.169 2.093-1.753 3.92-1.753h0.799c3.146 0 4.719 1.677 4.719 5.031v9.3c0 3.354-1.573 5.031-4.719 5.031zM35.831 10.1v10.519c0 0.203 0.063 0.381 0.19 0.534 0.152 0.152 0.33 0.229 0.533 0.229h2.093c0.203 0 0.368-0.076 0.495-0.229 0.152-0.152 0.228-0.33 0.228-0.534v-10.519c0-0.203-0.076-0.381-0.228-0.534-0.127-0.152-0.292-0.229-0.495-0.229h-2.093c-0.203 0-0.38 0.076-0.533 0.229-0.127 0.152-0.19 0.33-0.19 0.534z"></path>
<path d="M55.854 5.679h0.989v4.955h-2.512c-0.863 0-1.294 0.445-1.294 1.334v12.692h-5.1v-18.6h4.643v1.791c0.736-1.448 1.827-2.172 3.273-2.172z"></path>
<path d="M68.145 5.679c3.146 0 4.719 1.677 4.719 5.031v6.022h-8.639v3.888c0 0.203 0.064 0.381 0.19 0.534 0.152 0.152 0.33 0.229 0.533 0.229h2.093c0.203 0 0.368-0.076 0.495-0.229 0.152-0.152 0.228-0.33 0.228-0.534v-2.058h5.1v1.448c0 3.354-1.573 5.031-4.719 5.031h-4.3c-3.146 0-4.719-1.677-4.719-5.031v-9.3c0-3.354 1.573-5.031 4.719-5.031h4.3zM64.225 13.378h3.539v-3.43c0-0.203-0.076-0.381-0.228-0.534-0.127-0.152-0.292-0.229-0.495-0.229h-2.093c-0.203 0-0.38 0.076-0.533 0.229-0.127 0.152-0.19 0.33-0.19 0.534v3.43z"></path>
<path d="M84.417 12.997c3.146 0 4.719 1.677 4.719 5.031v1.982c0 3.354-1.573 5.031-4.719 5.031h-4.224c-3.146 0-4.719-1.677-4.719-5.031v-1.182h4.719v1.677c0 0.203 0.063 0.381 0.19 0.534 0.152 0.152 0.33 0.229 0.533 0.229h3.121c0.203 0 0.368-0.076 0.495-0.229 0.152-0.152 0.228-0.33 0.228-0.534v-2.287c0-0.203-0.076-0.381-0.228-0.534-0.127-0.152-0.292-0.229-0.495-0.229h-3.92c-3.146 0-4.719-1.677-4.719-5.031v-1.715c0-3.354 1.573-5.031 4.719-5.031h3.996c3.146 0 4.719 1.677 4.719 5.031v0.686h-4.719v-1.182c0-0.203-0.076-0.381-0.228-0.534-0.127-0.152-0.292-0.229-0.495-0.229h-2.892c-0.203 0-0.381 0.076-0.533 0.229-0.127 0.152-0.19 0.33-0.19 0.534v2.020c0 0.203 0.064 0.381 0.19 0.534 0.152 0.152 0.33 0.229 0.533 0.229h3.92z"></path>
<path d="M100.881 12.997c3.146 0 4.719 1.677 4.719 5.031v1.982c0 3.354-1.573 5.031-4.719 5.031h-4.224c-3.146 0-4.719-1.677-4.719-5.031v-1.182h4.719v1.677c0 0.203 0.063 0.381 0.19 0.534 0.152 0.152 0.33 0.229 0.533 0.229h3.121c0.203 0 0.368-0.076 0.495-0.229 0.152-0.152 0.228-0.33 0.228-0.534v-2.287c0-0.203-0.076-0.381-0.228-0.534-0.127-0.152-0.292-0.229-0.495-0.229h-3.92c-3.146 0-4.719-1.677-4.719-5.031v-1.715c0-3.354 1.573-5.031 4.719-5.031h3.996c3.146 0 4.719 1.677 4.719 5.031v0.686h-4.719v-1.182c0-0.203-0.076-0.381-0.228-0.534-0.127-0.152-0.292-0.229-0.495-0.229h-2.892c-0.203 0-0.38 0.076-0.533 0.229-0.127 0.152-0.19 0.33-0.19 0.534v2.020c0 0.203 0.064 0.381 0.19 0.534 0.152 0.152 0.33 0.229 0.533 0.229h3.92z"></path>
</symbol>
<symbol id="icon-burger" viewBox="0 0 32 32">
<path d="M2 5h28v3h-28v-3z"></path>
<path d="M2 14.5h24v3h-24v-3z"></path>
<path d="M2 23h16v3h-16v-3z"></path>
</symbol>
<symbol id="icon-Decor" viewBox="0 0 797 32">
<path stroke-linejoin="miter" stroke-linecap="butt" stroke-miterlimit="4" stroke-width="2.9091" d="M794.182 2.909l-791.273 26.182h576.905"></path>
</symbol>
</defs>
</svg>
